<?xml version="1.0" encoding="utf-8"?>
<!-- Generator: Adobe Illustrator 22.1.0, SVG Export Plug-In . SVG Version: 6.00 Build 0)  -->
<svg version="1.1" id="Calque_1" xmlns="http://www.w3.org/2000/svg" xmlns:xlink="http://www.w3.org/1999/xlink" x="0px" y="0px"
	 viewBox="0 0 224 140" style="enable-background:new 0 0 224 140;" xml:space="preserve">
<style type="text/css">
	.st0{fill:#FFFFFF;}
</style>
<g>
	<path class="st0" d="M32.8,71.1C16,71.1,2.3,57.1,2.3,40V3.2h13.6V40c0,9.5,7.6,17.2,17,17.2s17-7.7,17-17.2V3.2h13.6V40
		C63.4,57.1,49.7,71.1,32.8,71.1z"/>
	<g>
		<polygon class="st0" points="183.2,30.9 205.5,70.1 221.2,70.1 183.2,3.2 145.2,70.1 160.9,70.1 		"/>
	</g>
	<path class="st0" d="M109,71.1c-6.4,0-12.8-1.8-18.5-5.6C74.8,55,70.4,33.6,80.6,17.6c10.3-15.9,31.4-20.4,47-10l-7.4,11.6
		c-9.4-6.2-22.1-3.5-28.2,6c-6.1,9.6-3.5,22.4,5.9,28.7s22.1,3.5,28.2-6l11.4,7.6C131,65.5,120.1,71.1,109,71.1z"/>
	<rect x="108.7" y="29.6" class="st0" width="30.3" height="13.8"/>
	<g>
		<polygon class="st0" points="183.2,60.6 167,89.1 199.4,89.1 		"/>
	</g>
	<g>
		<path class="st0" d="M4.6,102.6c-1.5-1.5-2.3-3.3-2.3-5.6V84.6h4.2v12.1c0,1.2,0.4,2.2,1.1,2.9c0.7,0.7,1.6,1.1,2.7,1.1
			s2-0.4,2.8-1.1c0.7-0.7,1.1-1.7,1.1-2.9V84.6h4.2v12.3c0,2.3-0.8,4.2-2.3,5.6c-1.5,1.5-3.4,2.2-5.7,2.2C8,104.8,6.1,104,4.6,102.6
			z"/>
		<path class="st0" d="M35.1,90.5c1,1.2,1.5,2.7,1.5,4.6v9.2h-4v-8.6c0-2.3-0.9-3.4-2.6-3.4c-0.7,0-1.3,0.2-1.8,0.5
			c-0.5,0.3-0.9,0.8-1.2,1.4c-0.3,0.6-0.4,1.3-0.4,2.1v8h-4V89.2h2.8l0.8,1.9c0.3-0.4,0.6-0.7,1-0.9c0.4-0.3,0.8-0.5,1.2-0.7
			s0.9-0.3,1.3-0.4c0.5-0.1,1-0.2,1.5-0.2C32.7,88.8,34.1,89.4,35.1,90.5z"/>
		<path class="st0" d="M40.8,83.3h4v3.8h-4V83.3z M40.8,89.1h4v15.2h-4V89.1z"/>
		<path class="st0" d="M63.3,89.1l-6,15.2h-3.7l-6.1-15.2h4.3l3.7,10.2l3.6-10.2H63.3z"/>
		<path class="st0" d="M79.9,97.9H68.6c0.2,1,0.6,1.8,1.2,2.4s1.5,0.8,2.5,0.8c0.7,0,1.3-0.2,1.9-0.5c0.6-0.3,1-0.7,1.3-1.3h4.3
			c-0.6,1.6-1.5,3-2.8,3.9c-1.3,1-2.9,1.5-4.6,1.5c-2.2,0-4.1-0.8-5.5-2.3c-1.5-1.5-2.2-3.4-2.2-5.7c0-0.9,0.1-1.8,0.4-2.6
			c0.2-0.8,0.6-1.6,1.1-2.2c0.5-0.7,1-1.2,1.6-1.7c0.6-0.5,1.3-0.8,2.1-1.1c0.8-0.3,1.6-0.4,2.5-0.4c1.5,0,2.8,0.4,4,1.1
			c1.2,0.7,2.1,1.7,2.7,2.9c0.6,1.2,1,2.6,1,4C80,97.1,80,97.5,79.9,97.9z M70,93c-0.6,0.5-1,1.2-1.3,2.1H76
			c-0.2-0.6-0.5-1.1-0.8-1.6c-0.4-0.4-0.8-0.7-1.3-1c-0.5-0.2-1-0.3-1.6-0.3C71.4,92.2,70.6,92.5,70,93z"/>
		<path class="st0" d="M92.4,89.1v3.9h-1.7c-1.1,0-2,0.3-2.5,0.8c-0.5,0.5-0.7,1.4-0.7,2.7v7.9h-4V89.1H86l0.7,1.9
			c1-1.3,2.5-1.9,4.3-1.9L92.4,89.1L92.4,89.1z"/>
		<path class="st0" d="M97.2,104.1c-0.9-0.4-1.7-1.1-2.2-1.9s-0.8-1.8-0.8-2.8h3.9c0,0.4,0.1,0.8,0.3,1.1c0.2,0.3,0.5,0.5,0.9,0.7
			c0.4,0.1,0.8,0.2,1.3,0.2c0.4,0,0.7-0.1,1.1-0.2c0.3-0.1,0.6-0.3,0.8-0.5c0.2-0.2,0.3-0.5,0.3-0.8c0-0.5-0.2-0.8-0.7-1
			c-0.5-0.2-1.2-0.4-2.2-0.6c-0.6-0.1-1.1-0.2-1.5-0.3c-0.4-0.1-0.9-0.3-1.4-0.5s-1-0.5-1.3-0.8c-0.3-0.3-0.6-0.7-0.8-1.2
			c-0.2-0.5-0.4-1.1-0.4-1.8c0-1.4,0.6-2.6,1.7-3.5c1.1-0.9,2.6-1.3,4.4-1.3c1.8,0,3.3,0.5,4.3,1.4c1.1,0.9,1.6,2.2,1.6,3.7h-3.8
			c0-1.2-0.7-1.8-2.2-1.8c-0.6,0-1.1,0.1-1.5,0.4c-0.4,0.3-0.5,0.6-0.5,1.1c0,0.2,0.1,0.4,0.2,0.5c0.1,0.2,0.2,0.3,0.4,0.4
			c0.1,0.1,0.4,0.2,0.7,0.3c0.3,0.1,0.5,0.1,0.7,0.2l0.9,0.2c0.4,0.1,0.6,0.1,0.7,0.2c0.1,0,0.4,0.1,0.7,0.2
			c0.4,0.1,0.6,0.1,0.8,0.2s0.4,0.2,0.7,0.3c0.3,0.1,0.5,0.2,0.7,0.4c0.2,0.1,0.4,0.3,0.6,0.4c0.2,0.2,0.4,0.4,0.5,0.6
			c0.1,0.2,0.3,0.4,0.4,0.7c0.1,0.2,0.2,0.5,0.3,0.8c0,0.3,0.1,0.7,0.1,1c0,1.6-0.6,2.8-1.7,3.7c-1.1,0.9-2.7,1.4-4.5,1.4
			C99.2,104.8,98.1,104.5,97.2,104.1z"/>
		<path class="st0" d="M110.2,83.3h4v3.8h-4V83.3z M110.2,89.1h4v15.2h-4V89.1z"/>
		<path class="st0" d="M127.9,100.7v3.7H125c-1.1,0-2-0.2-2.8-0.6c-0.8-0.4-1.4-1.1-1.8-1.9c-0.4-0.8-0.6-1.8-0.6-2.9v-6.5H117v-0.9
			l5.9-6.4h0.7v4h4.1v3.3h-4v5.9c0,0.7,0.2,1.3,0.6,1.7c0.4,0.4,1,0.6,1.7,0.6H127.9z"/>
		<path class="st0" d="M145.5,97.9h-11.3c0.2,1,0.6,1.8,1.2,2.4s1.5,0.8,2.5,0.8c0.7,0,1.3-0.2,1.9-0.5c0.6-0.3,1-0.7,1.3-1.3h4.3
			c-0.6,1.6-1.5,3-2.8,3.9c-1.3,1-2.9,1.5-4.6,1.5c-2.2,0-4.1-0.8-5.5-2.3c-1.5-1.5-2.2-3.4-2.2-5.7c0-0.9,0.1-1.8,0.4-2.6
			c0.2-0.8,0.6-1.6,1.1-2.2s1-1.2,1.6-1.7c0.6-0.5,1.3-0.8,2.1-1.1c0.8-0.3,1.6-0.4,2.5-0.4c1.5,0,2.8,0.4,4,1.1
			c1.2,0.7,2.1,1.7,2.7,2.9c0.6,1.2,1,2.6,1,4C145.6,97.1,145.5,97.5,145.5,97.9z M135.6,93c-0.6,0.5-1,1.2-1.3,2.1h7.2
			c-0.2-0.6-0.5-1.1-0.8-1.6c-0.4-0.4-0.8-0.7-1.3-1c-0.5-0.2-1-0.3-1.6-0.3C136.9,92.2,136.2,92.5,135.6,93z M139,87.5H136l1.5-4.3
			h4.3L139,87.5z"/>
		<path class="st0" d="M21.3,122.5c0,3.1-0.9,5.7-2.8,7.7c-1.8,2-4.2,3-7.1,3c-2.9,0-5.2-1-7.2-2.9c-1.9-1.9-2.9-4.4-2.9-7.3
			c0-3,0.9-5.4,2.8-7.4c1.9-2,4.3-2.9,7.1-2.9c2.4,0,4.5,0.7,6.3,2.1c1.8,1.4,2.9,3.2,3.4,5.4h-4.3c-0.3-0.7-0.7-1.3-1.2-1.8
			c-0.5-0.5-1.1-0.9-1.8-1.2c-0.7-0.3-1.5-0.4-2.3-0.4c-1.7,0-3.1,0.6-4.2,1.7s-1.6,2.7-1.6,4.5c0,1.2,0.2,2.3,0.7,3.2
			s1.2,1.7,2,2.2c0.9,0.5,1.9,0.8,3,0.8c0.8,0,1.6-0.1,2.4-0.4c0.7-0.3,1.4-0.7,1.9-1.2c0.5-0.5,0.9-1.1,1.2-1.8H11v-3.3L21.3,122.5
			L21.3,122.5z"/>
		<path class="st0" d="M33.7,117.5v3.9H32c-1.1,0-2,0.3-2.5,0.8c-0.5,0.5-0.7,1.4-0.7,2.7v7.9h-4v-15.2h2.6l0.7,1.9
			c1-1.3,2.5-1.9,4.3-1.9H33.7z"/>
		<path class="st0" d="M50.7,126.4H39.4c0.2,1,0.6,1.8,1.2,2.4c0.6,0.6,1.5,0.8,2.5,0.8c0.7,0,1.3-0.2,1.9-0.5
			c0.6-0.3,1-0.7,1.3-1.3h4.3c-0.6,1.6-1.5,3-2.8,3.9c-1.3,1-2.9,1.5-4.6,1.5c-2.2,0-4.1-0.8-5.5-2.3s-2.2-3.4-2.2-5.7
			c0-0.9,0.1-1.8,0.4-2.6c0.2-0.8,0.6-1.6,1.1-2.2c0.5-0.7,1-1.2,1.6-1.7c0.6-0.5,1.3-0.8,2.1-1.1c0.8-0.3,1.6-0.4,2.5-0.4
			c1.5,0,2.8,0.4,4,1.1c1.2,0.7,2.1,1.7,2.7,2.9c0.6,1.2,1,2.6,1,4C50.7,125.6,50.7,126,50.7,126.4z M40.7,121.4
			c-0.6,0.5-1,1.2-1.3,2.1h7.2c-0.2-0.6-0.5-1.1-0.8-1.6c-0.4-0.4-0.8-0.7-1.3-1c-0.5-0.2-1-0.3-1.6-0.3
			C42.1,120.7,41.3,120.9,40.7,121.4z"/>
		<path class="st0" d="M66.7,119c1,1.2,1.5,2.7,1.5,4.6v9.2h-4v-8.6c0-2.3-0.9-3.4-2.6-3.4c-0.7,0-1.3,0.2-1.8,0.5
			c-0.5,0.3-0.9,0.8-1.2,1.4c-0.3,0.6-0.4,1.3-0.4,2.1v8h-4v-15.2H57l0.8,1.9c0.3-0.4,0.6-0.7,1-0.9c0.4-0.3,0.8-0.5,1.2-0.7
			s0.9-0.3,1.3-0.4c0.5-0.1,1-0.2,1.5-0.2C64.4,117.3,65.8,117.8,66.7,119z"/>
		<path class="st0" d="M75.5,132.2c-1.2-0.7-2.2-1.7-2.9-2.9c-0.7-1.2-1-2.6-1-4.1c0-2.3,0.8-4.2,2.3-5.7c1.5-1.5,3.5-2.3,5.8-2.3
			c2.3,0,4.2,0.8,5.8,2.3c1.5,1.5,2.3,3.4,2.3,5.7c0,2.3-0.8,4.2-2.3,5.7c-1.5,1.5-3.5,2.3-5.7,2.3
			C78.1,133.2,76.7,132.9,75.5,132.2z M82.5,128.2c0.7-0.8,1.1-1.8,1.1-3c0-1.2-0.4-2.2-1.1-3c-0.7-0.8-1.7-1.2-2.9-1.2
			s-2.1,0.4-2.9,1.2c-0.7,0.8-1.1,1.8-1.1,3c0,0.6,0.1,1.2,0.3,1.7c0.2,0.5,0.5,1,0.8,1.3c0.4,0.4,0.8,0.6,1.3,0.8
			c0.5,0.2,1,0.3,1.6,0.3C80.8,129.4,81.7,129,82.5,128.2z"/>
		<path class="st0" d="M104.9,119.5c1.5,1.5,2.2,3.4,2.2,5.7c0,2.3-0.7,4.2-2.2,5.7c-1.5,1.5-3.4,2.3-5.6,2.3
			c-1.8,0-3.4-0.6-4.7-1.7l-0.5,1.3h-3v-20.7h4v6.3c1.2-0.8,2.6-1.2,4.1-1.2C101.5,117.2,103.4,118,104.9,119.5z M101.9,128.2
			c0.8-0.8,1.2-1.8,1.2-3c0-0.8-0.2-1.5-0.5-2.1c-0.3-0.6-0.8-1.1-1.5-1.5s-1.3-0.5-2.1-0.5s-1.5,0.2-2.1,0.5
			c-0.6,0.4-1.1,0.9-1.5,1.5c-0.4,0.6-0.5,1.3-0.5,2.1c0,1.2,0.4,2.2,1.2,3c0.8,0.8,1.7,1.2,2.9,1.2
			C100.1,129.4,101.1,129,101.9,128.2z"/>
		<path class="st0" d="M110.6,112.1h4v20.7h-4V112.1z"/>
		<path class="st0" d="M133.5,126.4h-11.3c0.2,1,0.6,1.8,1.2,2.4c0.6,0.6,1.5,0.8,2.5,0.8c0.7,0,1.3-0.2,1.9-0.5
			c0.6-0.3,1-0.7,1.3-1.3h4.3c-0.6,1.6-1.5,3-2.8,3.9c-1.3,1-2.9,1.5-4.6,1.5c-2.2,0-4.1-0.8-5.5-2.3s-2.2-3.4-2.2-5.7
			c0-0.9,0.1-1.8,0.4-2.6c0.2-0.8,0.6-1.6,1.1-2.2c0.5-0.7,1-1.2,1.6-1.7c0.6-0.5,1.3-0.8,2.1-1.1c0.8-0.3,1.6-0.4,2.5-0.4
			c1.5,0,2.8,0.4,4,1.1c1.2,0.7,2.1,1.7,2.7,2.9c0.6,1.2,1,2.6,1,4C133.6,125.6,133.6,126,133.5,126.4z M123.6,121.4
			c-0.6,0.5-1,1.2-1.3,2.1h7.2c-0.2-0.6-0.5-1.1-0.8-1.6c-0.4-0.4-0.8-0.7-1.3-1c-0.5-0.2-1-0.3-1.6-0.3
			C125,120.7,124.2,120.9,123.6,121.4z"/>
		<path class="st0" d="M155.3,129.1h-7.7l-1.3,3.7h-4.4l7.6-19.7h4l7.8,19.7h-4.5L155.3,129.1z M148.9,125.4h5.1l-2.5-7L148.9,125.4
			z"/>
		<path class="st0" d="M163.9,112.1h4v20.7h-4V112.1z"/>
		<path class="st0" d="M186.2,119.5c1.5,1.5,2.2,3.4,2.2,5.7c0,2.3-0.7,4.2-2.2,5.8s-3.4,2.3-5.6,2.3c-1.5,0-2.9-0.4-4.1-1.3v6.3h-4
			v-20.7h2.7l0.7,1.4c1.3-1.2,2.9-1.8,4.8-1.8C182.8,117.2,184.7,118,186.2,119.5z M183.2,128.2c0.8-0.8,1.2-1.8,1.2-3
			c0-0.8-0.2-1.5-0.5-2.1c-0.4-0.6-0.8-1.1-1.5-1.5s-1.3-0.5-2.1-0.5c-0.8,0-1.5,0.2-2.1,0.5c-0.6,0.4-1.1,0.9-1.5,1.5
			c-0.3,0.6-0.5,1.3-0.5,2.1c0,1.2,0.4,2.2,1.2,3c0.8,0.8,1.7,1.2,2.9,1.2C181.4,129.4,182.4,129,183.2,128.2z"/>
		<path class="st0" d="M206.3,126.4H195c0.2,1,0.6,1.8,1.2,2.4c0.6,0.6,1.5,0.8,2.5,0.8c0.7,0,1.3-0.2,1.9-0.5s1-0.7,1.3-1.3h4.3
			c-0.6,1.6-1.5,3-2.8,3.9c-1.3,1-2.9,1.5-4.6,1.5c-2.2,0-4.1-0.8-5.5-2.3s-2.2-3.4-2.2-5.7c0-0.9,0.1-1.8,0.4-2.6
			c0.2-0.8,0.6-1.6,1.1-2.2c0.5-0.7,1-1.2,1.6-1.7c0.6-0.5,1.3-0.8,2.1-1.1c0.8-0.3,1.6-0.4,2.5-0.4c1.5,0,2.8,0.4,4,1.1
			c1.2,0.7,2.1,1.7,2.7,2.9s1,2.6,1,4C206.4,125.6,206.3,126,206.3,126.4z M196.4,121.4c-0.6,0.5-1,1.2-1.3,2.1h7.2
			c-0.2-0.6-0.5-1.1-0.8-1.6c-0.4-0.4-0.8-0.7-1.3-1c-0.5-0.2-1-0.3-1.6-0.3C197.7,120.7,197,120.9,196.4,121.4z"/>
		<path class="st0" d="M211.8,132.6c-0.9-0.4-1.7-1.1-2.2-1.9c-0.5-0.8-0.8-1.8-0.8-2.8h3.9c0,0.4,0.1,0.8,0.3,1.1
			c0.2,0.3,0.5,0.5,0.9,0.7s0.8,0.2,1.3,0.2c0.4,0,0.7-0.1,1.1-0.2c0.3-0.1,0.6-0.3,0.8-0.5c0.2-0.2,0.3-0.5,0.3-0.8
			c0-0.5-0.2-0.8-0.7-1c-0.5-0.2-1.2-0.4-2.2-0.6c-0.6-0.1-1.1-0.2-1.5-0.3c-0.4-0.1-0.9-0.3-1.4-0.5c-0.5-0.2-1-0.5-1.3-0.8
			c-0.3-0.3-0.6-0.7-0.8-1.2c-0.2-0.5-0.4-1.1-0.4-1.8c0-1.4,0.6-2.6,1.7-3.5c1.1-0.9,2.6-1.3,4.4-1.3s3.3,0.5,4.3,1.4
			c1.1,0.9,1.6,2.2,1.6,3.7h-3.8c0-1.2-0.7-1.8-2.2-1.8c-0.6,0-1.1,0.1-1.5,0.4s-0.5,0.6-0.5,1.1c0,0.2,0.1,0.4,0.2,0.5
			c0.1,0.2,0.2,0.3,0.4,0.4c0.1,0.1,0.4,0.2,0.6,0.3c0.3,0.1,0.5,0.1,0.7,0.2l0.9,0.2c0.4,0.1,0.6,0.1,0.7,0.2
			c0.1,0,0.4,0.1,0.7,0.2c0.4,0.1,0.6,0.1,0.8,0.2c0.2,0.1,0.4,0.2,0.7,0.3c0.3,0.1,0.5,0.2,0.7,0.4c0.2,0.1,0.4,0.3,0.6,0.4
			c0.2,0.2,0.4,0.4,0.5,0.6s0.3,0.4,0.4,0.7s0.2,0.5,0.3,0.8c0,0.3,0.1,0.7,0.1,1c0,1.6-0.6,2.8-1.7,3.7c-1.1,0.9-2.7,1.4-4.5,1.4
			C213.9,133.2,212.8,133,211.8,132.6z"/>
	</g>
</g>
</svg>
