<svg version="1.1" id="Calque_1" xmlns="http://www.w3.org/2000/svg" x="0" y="0" viewBox="0 0 224 140" style="enable-background:new 0 0 224 140" xml:space="preserve">
    <style>
        .st0{fill:#fff}
    </style>
    <path class="st0" d="M32.8 71.1C16 71.1 2.3 57.1 2.3 40V3.2h13.6V40c0 9.5 7.6 17.2 17 17.2s17-7.7 17-17.2V3.2h13.6V40c-.1 17.1-13.8 31.1-30.7 31.1zM183.2 30.9l22.3 39.2h15.7l-38-66.9-38 66.9h15.7zM109 71.1c-6.4 0-12.8-1.8-18.5-5.6C74.8 55 70.4 33.6 80.6 17.6c10.3-15.9 31.4-20.4 47-10l-7.4 11.6c-9.4-6.2-22.1-3.5-28.2 6-6.1 9.6-3.5 22.4 5.9 28.7s22.1 3.5 28.2-6l11.4 7.6c-6.5 10-17.4 15.6-28.5 15.6z"/>
    <path class="st0" d="M108.7 29.6H139v13.8h-30.3zM183.2 60.6 167 89.1h32.4zM4.6 102.6c-1.5-1.5-2.3-3.3-2.3-5.6V84.6h4.2v12.1c0 1.2.4 2.2 1.1 2.9.7.7 1.6 1.1 2.7 1.1s2-.4 2.8-1.1c.7-.7 1.1-1.7 1.1-2.9V84.6h4.2v12.3c0 2.3-.8 4.2-2.3 5.6-1.5 1.5-3.4 2.2-5.7 2.2-2.4.1-4.3-.7-5.8-2.1zM35.1 90.5c1 1.2 1.5 2.7 1.5 4.6v9.2h-4v-8.6c0-2.3-.9-3.4-2.6-3.4-.7 0-1.3.2-1.8.5s-.9.8-1.2 1.4c-.3.6-.4 1.3-.4 2.1v8h-4V89.2h2.8l.8 1.9c.3-.4.6-.7 1-.9.4-.3.8-.5 1.2-.7s.9-.3 1.3-.4c.5-.1 1-.2 1.5-.2 1.5-.1 2.9.5 3.9 1.6zM40.8 83.3h4v3.8h-4v-3.8zm0 5.8h4v15.2h-4V89.1zM63.3 89.1l-6 15.2h-3.7l-6.1-15.2h4.3l3.7 10.2 3.6-10.2h4.2zM79.9 97.9H68.6c.2 1 .6 1.8 1.2 2.4s1.5.8 2.5.8c.7 0 1.3-.2 1.9-.5.6-.3 1-.7 1.3-1.3h4.3c-.6 1.6-1.5 3-2.8 3.9-1.3 1-2.9 1.5-4.6 1.5-2.2 0-4.1-.8-5.5-2.3-1.5-1.5-2.2-3.4-2.2-5.7 0-.9.1-1.8.4-2.6.2-.8.6-1.6 1.1-2.2.5-.7 1-1.2 1.6-1.7.6-.5 1.3-.8 2.1-1.1.8-.3 1.6-.4 2.5-.4 1.5 0 2.8.4 4 1.1 1.2.7 2.1 1.7 2.7 2.9.6 1.2 1 2.6 1 4-.1.4-.1.8-.2 1.2zM70 93c-.6.5-1 1.2-1.3 2.1H76c-.2-.6-.5-1.1-.8-1.6-.4-.4-.8-.7-1.3-1-.5-.2-1-.3-1.6-.3-.9 0-1.7.3-2.3.8zM92.4 89.1V93h-1.7c-1.1 0-2 .3-2.5.8s-.7 1.4-.7 2.7v7.9h-4V89.1H86l.7 1.9c1-1.3 2.5-1.9 4.3-1.9h1.4zM97.2 104.1c-.9-.4-1.7-1.1-2.2-1.9s-.8-1.8-.8-2.8h3.9c0 .4.1.8.3 1.1.2.3.5.5.9.7.4.1.8.2 1.3.2.4 0 .7-.1 1.1-.2.3-.1.6-.3.8-.5.2-.2.3-.5.3-.8 0-.5-.2-.8-.7-1-.5-.2-1.2-.4-2.2-.6-.6-.1-1.1-.2-1.5-.3-.4-.1-.9-.3-1.4-.5s-1-.5-1.3-.8c-.3-.3-.6-.7-.8-1.2-.2-.5-.4-1.1-.4-1.8 0-1.4.6-2.6 1.7-3.5 1.1-.9 2.6-1.3 4.4-1.3 1.8 0 3.3.5 4.3 1.4 1.1.9 1.6 2.2 1.6 3.7h-3.8c0-1.2-.7-1.8-2.2-1.8-.6 0-1.1.1-1.5.4-.4.3-.5.6-.5 1.1 0 .2.1.4.2.5.1.2.2.3.4.4.1.1.4.2.7.3.3.1.5.1.7.2l.9.2c.4.1.6.1.7.2.1 0 .4.1.7.2.4.1.6.1.8.2s.4.2.7.3c.3.1.5.2.7.4.2.1.4.3.6.4.2.2.4.4.5.6.1.2.3.4.4.7.1.2.2.5.3.8 0 .3.1.7.1 1 0 1.6-.6 2.8-1.7 3.7-1.1.9-2.7 1.4-4.5 1.4-1.5-.4-2.6-.7-3.5-1.1zM110.2 83.3h4v3.8h-4v-3.8zm0 5.8h4v15.2h-4V89.1zM127.9 100.7v3.7H125c-1.1 0-2-.2-2.8-.6-.8-.4-1.4-1.1-1.8-1.9-.4-.8-.6-1.8-.6-2.9v-6.5H117v-.9l5.9-6.4h.7v4h4.1v3.3h-4v5.9c0 .7.2 1.3.6 1.7.4.4 1 .6 1.7.6h1.9zM145.5 97.9h-11.3c.2 1 .6 1.8 1.2 2.4s1.5.8 2.5.8c.7 0 1.3-.2 1.9-.5.6-.3 1-.7 1.3-1.3h4.3c-.6 1.6-1.5 3-2.8 3.9-1.3 1-2.9 1.5-4.6 1.5-2.2 0-4.1-.8-5.5-2.3-1.5-1.5-2.2-3.4-2.2-5.7 0-.9.1-1.8.4-2.6.2-.8.6-1.6 1.1-2.2s1-1.2 1.6-1.7c.6-.5 1.3-.8 2.1-1.1.8-.3 1.6-.4 2.5-.4 1.5 0 2.8.4 4 1.1 1.2.7 2.1 1.7 2.7 2.9.6 1.2 1 2.6 1 4-.1.4-.2.8-.2 1.2zm-9.9-4.9c-.6.5-1 1.2-1.3 2.1h7.2c-.2-.6-.5-1.1-.8-1.6-.4-.4-.8-.7-1.3-1-.5-.2-1-.3-1.6-.3-.9 0-1.6.3-2.2.8zm3.4-5.5h-3l1.5-4.3h4.3l-2.8 4.3zM21.3 122.5c0 3.1-.9 5.7-2.8 7.7-1.8 2-4.2 3-7.1 3-2.9 0-5.2-1-7.2-2.9-1.9-1.9-2.9-4.4-2.9-7.3 0-3 .9-5.4 2.8-7.4s4.3-2.9 7.1-2.9c2.4 0 4.5.7 6.3 2.1 1.8 1.4 2.9 3.2 3.4 5.4h-4.3c-.3-.7-.7-1.3-1.2-1.8s-1.1-.9-1.8-1.2c-.7-.3-1.5-.4-2.3-.4-1.7 0-3.1.6-4.2 1.7s-1.6 2.7-1.6 4.5c0 1.2.2 2.3.7 3.2s1.2 1.7 2 2.2c.9.5 1.9.8 3 .8.8 0 1.6-.1 2.4-.4.7-.3 1.4-.7 1.9-1.2s.9-1.1 1.2-1.8H11v-3.3h10.3zM33.7 117.5v3.9H32c-1.1 0-2 .3-2.5.8s-.7 1.4-.7 2.7v7.9h-4v-15.2h2.6l.7 1.9c1-1.3 2.5-1.9 4.3-1.9h1.3zM50.7 126.4H39.4c.2 1 .6 1.8 1.2 2.4.6.6 1.5.8 2.5.8.7 0 1.3-.2 1.9-.5.6-.3 1-.7 1.3-1.3h4.3c-.6 1.6-1.5 3-2.8 3.9-1.3 1-2.9 1.5-4.6 1.5-2.2 0-4.1-.8-5.5-2.3s-2.2-3.4-2.2-5.7c0-.9.1-1.8.4-2.6.2-.8.6-1.6 1.1-2.2.5-.7 1-1.2 1.6-1.7.6-.5 1.3-.8 2.1-1.1.8-.3 1.6-.4 2.5-.4 1.5 0 2.8.4 4 1.1 1.2.7 2.1 1.7 2.7 2.9.6 1.2 1 2.6 1 4-.2.4-.2.8-.2 1.2zm-10-5c-.6.5-1 1.2-1.3 2.1h7.2c-.2-.6-.5-1.1-.8-1.6-.4-.4-.8-.7-1.3-1-.5-.2-1-.3-1.6-.3-.8.1-1.6.3-2.2.8zM66.7 119c1 1.2 1.5 2.7 1.5 4.6v9.2h-4v-8.6c0-2.3-.9-3.4-2.6-3.4-.7 0-1.3.2-1.8.5s-.9.8-1.2 1.4c-.3.6-.4 1.3-.4 2.1v8h-4v-15.2H57l.8 1.9c.3-.4.6-.7 1-.9.4-.3.8-.5 1.2-.7s.9-.3 1.3-.4c.5-.1 1-.2 1.5-.2 1.6 0 3 .5 3.9 1.7zM75.5 132.2c-1.2-.7-2.2-1.7-2.9-2.9-.7-1.2-1-2.6-1-4.1 0-2.3.8-4.2 2.3-5.7 1.5-1.5 3.5-2.3 5.8-2.3s4.2.8 5.8 2.3c1.5 1.5 2.3 3.4 2.3 5.7 0 2.3-.8 4.2-2.3 5.7-1.5 1.5-3.5 2.3-5.7 2.3-1.7 0-3.1-.3-4.3-1zm7-4c.7-.8 1.1-1.8 1.1-3s-.4-2.2-1.1-3c-.7-.8-1.7-1.2-2.9-1.2s-2.1.4-2.9 1.2c-.7.8-1.1 1.8-1.1 3 0 .6.1 1.2.3 1.7.2.5.5 1 .8 1.3.4.4.8.6 1.3.8.5.2 1 .3 1.6.3 1.2.1 2.1-.3 2.9-1.1zM104.9 119.5c1.5 1.5 2.2 3.4 2.2 5.7 0 2.3-.7 4.2-2.2 5.7-1.5 1.5-3.4 2.3-5.6 2.3-1.8 0-3.4-.6-4.7-1.7l-.5 1.3h-3v-20.7h4v6.3c1.2-.8 2.6-1.2 4.1-1.2 2.3 0 4.2.8 5.7 2.3zm-3 8.7c.8-.8 1.2-1.8 1.2-3 0-.8-.2-1.5-.5-2.1-.3-.6-.8-1.1-1.5-1.5s-1.3-.5-2.1-.5-1.5.2-2.1.5c-.6.4-1.1.9-1.5 1.5-.4.6-.5 1.3-.5 2.1 0 1.2.4 2.2 1.2 3 .8.8 1.7 1.2 2.9 1.2 1.1 0 2.1-.4 2.9-1.2zM110.6 112.1h4v20.7h-4v-20.7zM133.5 126.4h-11.3c.2 1 .6 1.8 1.2 2.4.6.6 1.5.8 2.5.8.7 0 1.3-.2 1.9-.5.6-.3 1-.7 1.3-1.3h4.3c-.6 1.6-1.5 3-2.8 3.9-1.3 1-2.9 1.5-4.6 1.5-2.2 0-4.1-.8-5.5-2.3s-2.2-3.4-2.2-5.7c0-.9.1-1.8.4-2.6.2-.8.6-1.6 1.1-2.2.5-.7 1-1.2 1.6-1.7.6-.5 1.3-.8 2.1-1.1.8-.3 1.6-.4 2.5-.4 1.5 0 2.8.4 4 1.1 1.2.7 2.1 1.7 2.7 2.9.6 1.2 1 2.6 1 4-.1.4-.1.8-.2 1.2zm-9.9-5c-.6.5-1 1.2-1.3 2.1h7.2c-.2-.6-.5-1.1-.8-1.6-.4-.4-.8-.7-1.3-1-.5-.2-1-.3-1.6-.3-.8.1-1.6.3-2.2.8zM155.3 129.1h-7.7l-1.3 3.7h-4.4l7.6-19.7h4l7.8 19.7h-4.5l-1.5-3.7zm-6.4-3.7h5.1l-2.5-7-2.6 7zM163.9 112.1h4v20.7h-4v-20.7zM186.2 119.5c1.5 1.5 2.2 3.4 2.2 5.7 0 2.3-.7 4.2-2.2 5.8s-3.4 2.3-5.6 2.3c-1.5 0-2.9-.4-4.1-1.3v6.3h-4v-20.7h2.7l.7 1.4c1.3-1.2 2.9-1.8 4.8-1.8 2.1 0 4 .8 5.5 2.3zm-3 8.7c.8-.8 1.2-1.8 1.2-3 0-.8-.2-1.5-.5-2.1-.4-.6-.8-1.1-1.5-1.5s-1.3-.5-2.1-.5-1.5.2-2.1.5c-.6.4-1.1.9-1.5 1.5-.3.6-.5 1.3-.5 2.1 0 1.2.4 2.2 1.2 3 .8.8 1.7 1.2 2.9 1.2 1.1 0 2.1-.4 2.9-1.2zM206.3 126.4H195c.2 1 .6 1.8 1.2 2.4.6.6 1.5.8 2.5.8.7 0 1.3-.2 1.9-.5s1-.7 1.3-1.3h4.3c-.6 1.6-1.5 3-2.8 3.9-1.3 1-2.9 1.5-4.6 1.5-2.2 0-4.1-.8-5.5-2.3s-2.2-3.4-2.2-5.7c0-.9.1-1.8.4-2.6.2-.8.6-1.6 1.1-2.2.5-.7 1-1.2 1.6-1.7.6-.5 1.3-.8 2.1-1.1.8-.3 1.6-.4 2.5-.4 1.5 0 2.8.4 4 1.1 1.2.7 2.1 1.7 2.7 2.9s1 2.6 1 4c-.1.4-.2.8-.2 1.2zm-9.9-5c-.6.5-1 1.2-1.3 2.1h7.2c-.2-.6-.5-1.1-.8-1.6-.4-.4-.8-.7-1.3-1-.5-.2-1-.3-1.6-.3-.9.1-1.6.3-2.2.8zM211.8 132.6c-.9-.4-1.7-1.1-2.2-1.9-.5-.8-.8-1.8-.8-2.8h3.9c0 .4.1.8.3 1.1.2.3.5.5.9.7s.8.2 1.3.2c.4 0 .7-.1 1.1-.2.3-.1.6-.3.8-.5.2-.2.3-.5.3-.8 0-.5-.2-.8-.7-1-.5-.2-1.2-.4-2.2-.6-.6-.1-1.1-.2-1.5-.3-.4-.1-.9-.3-1.4-.5-.5-.2-1-.5-1.3-.8-.3-.3-.6-.7-.8-1.2-.2-.5-.4-1.1-.4-1.8 0-1.4.6-2.6 1.7-3.5 1.1-.9 2.6-1.3 4.4-1.3s3.3.5 4.3 1.4c1.1.9 1.6 2.2 1.6 3.7h-3.8c0-1.2-.7-1.8-2.2-1.8-.6 0-1.1.1-1.5.4s-.5.6-.5 1.1c0 .2.1.4.2.5.1.2.2.3.4.4.1.1.4.2.6.3.3.1.5.1.7.2l.9.2c.4.1.6.1.7.2.1 0 .4.1.7.2.4.1.6.1.8.2.2.1.4.2.7.3.3.1.5.2.7.4.2.1.4.3.6.4.2.2.4.4.5.6s.3.4.4.7.2.5.3.8c0 .3.1.7.1 1 0 1.6-.6 2.8-1.7 3.7-1.1.9-2.7 1.4-4.5 1.4-1.3-.5-2.4-.7-3.4-1.1z"/>
</svg>
