<?xml version="1.0" encoding="utf-8"?>
<!-- Generator: $$$/GeneralStr/196=Adobe Illustrator 27.6.0, SVG Export Plug-In . SVG Version: 6.00 Build 0)  -->
<svg version="1.1" id="Calque_1" xmlns="http://www.w3.org/2000/svg" xmlns:xlink="http://www.w3.org/1999/xlink" x="0px" y="0px"
	 viewBox="0 0 1170.7 353.2" style="enable-background:new 0 0 1170.7 353.2;" xml:space="preserve">
<style type="text/css">
	.st0{fill:#162A42;}
	.st1{fill:#FF4E02;}
</style>
<g>
	<g>
		<polygon class="st0" points="1005.6,121.2 1090.3,270.2 1150,270.2 1005.6,15.9 861.1,270.2 920.8,270.2 		"/>
	</g>
	<g>
		<polygon class="st1" points="1005.6,234.1 944,342.5 1067.1,342.5 		"/>
	</g>
	<g>
		<path class="st0" d="M6.9,269.6c-4.6-5.3-6.9-12-6.9-20.2c6.9,0,11.8-1.2,14.7-3.5c2.8-2.3,4.3-6.4,4.3-12.3V85.1
			c0-5.9-1.4-10.1-4.3-12.5S6.9,69,0,69c0-8,2.3-14.6,6.9-19.9h76.8c2.1,2.5,3.8,5.6,5.1,9.2c1.3,3.6,1.9,7.2,1.9,10.7
			c-6.9,0-11.8,1.2-14.7,3.6c-2.8,2.4-4.3,6.6-4.3,12.5v148.5c0,5.9,1.4,10,4.3,12.3c2.8,2.3,7.7,3.5,14.7,3.5
			c0,3.8-0.6,7.5-1.9,11.1c-1.3,3.6-3,6.6-5.1,9.2H6.9V269.6z"/>
		<path class="st0" d="M161.4,271.8c-14.7,0-26.2-4.5-34.4-13.6s-12.3-21.3-12.3-36.6v-86.9c0-3.6-1.4-6.1-4.1-7.6
			c-2.7-1.5-6.5-2.2-11.4-2.2V111c2.7-2.3,8.5-4.8,17.2-7.4s18.6-3.9,29.5-3.9c8.2,0,13.6,0.9,16.3,2.8c2.6,1.9,3.9,6.5,3.9,13.9
			v106.1c0,6.3,1.1,11.2,3.2,14.5c2.1,3.4,5.8,5.1,11.1,5.1c4.4,0,8.7-1.4,12.8-4.1c4.1-2.7,7.5-5.9,10.3-9.5v-93.8
			c0-3.6-1.6-6.1-4.7-7.6c-3.2-1.5-7.5-2.2-13-2.2V111c2.9-2.3,8.7-4.8,17.4-7.4c8.6-2.6,18.8-3.9,30.6-3.9c8.2,0,13.8,0.9,16.7,2.8
			s4.4,6.5,4.4,13.9v116.2c0,5.1,1.3,9.3,3.9,12.6c2.6,3.4,6.4,5.3,11.2,5.7v8.8c-3.4,4-8.7,7-16,9s-14.3,3-21,3
			c-6.9,0-13-1.8-18.2-5.5s-8.6-9-10.3-16C194.4,264.6,179.9,271.8,161.4,271.8z"/>
		<path class="st0" d="M345.9,271.8c-8.8,0-17-1.6-24.3-4.9c-7.4-3.3-13.3-8.9-17.8-16.9s-6.8-19-6.8-32.9v-86.9h-20V111
			c5.7-0.8,11.1-4.4,16.1-10.7s9.4-14.1,13.1-23.4s6.1-18.5,7.1-27.8c3.8-0.6,7.3-0.9,10.4-0.9c8.4,0,14.3,2.4,17.5,7.3
			c3.3,4.8,4.9,9.4,4.9,13.6v33.2h36.6c0,5.1-0.3,10.1-0.8,15c-0.5,5-1.9,9.3-4.3,13.1h-31v89.1c0,6.7,1.4,11.2,4.1,13.4
			s6.2,3.3,10.4,3.3c4.2,0,8.5-1.1,12.8-3.3s7.7-4.8,10.3-7.7c2.3,1.9,3.9,4.7,4.7,8.4c0.8,3.7,1.3,6.5,1.3,8.4
			c0,4.6-1.6,9.3-4.7,13.9c-3.2,4.6-8.1,8.5-14.7,11.5S356,271.8,345.9,271.8z"/>
		<path class="st0" d="M474.1,273.7c-15,0-28.2-3.2-39.8-9.6c-11.6-6.4-20.6-15.9-27-28.4s-9.6-28.1-9.6-46.6
			c0-19.8,3.4-36.4,10.1-49.9s16.1-23.7,28.1-30.6s25.8-10.4,41.4-10.4c15.2,0,28.5,3.3,40,9.8c11.5,6.5,20.4,16.2,26.8,28.9
			c6.4,12.7,9.6,28.5,9.6,47.2c0,19.6-3.4,36.1-10.1,49.4c-6.7,13.4-16.1,23.4-28.1,30.2C503.5,270.3,489.7,273.7,474.1,273.7z
			 M476.7,251c4.4,0,8.3-1.6,11.5-4.7c3.3-3.2,5.8-9,7.6-17.5c1.8-8.5,2.7-20.9,2.7-37.1c0-19.8-0.9-34.8-2.8-45s-4.6-17.1-8.2-20.7
			c-3.6-3.6-7.8-5.4-12.6-5.4c-4.4,0-8.3,1.6-11.7,4.7c-3.4,3.2-6,9.1-7.7,17.7c-1.8,8.6-2.7,21.2-2.7,37.6c0,19.6,1,34.4,3,44.5
			s4.8,17,8.4,20.5C467.6,249.2,471.8,251,476.7,251z"/>
		<path class="st0" d="M578.7,329.6c-2.3-2.3-4.2-4.8-5.5-7.6c-1.4-2.7-2.1-5.8-2.1-9.2c6.3,0,10.4-1.4,12.2-4.1s2.7-7.2,2.7-13.3
			V144.2c0-5.5-1.5-9.5-4.6-12s-8.6-3.8-16.6-3.8v-14.2c4.6-2.7,10.2-5.3,16.6-7.6c6.4-2.3,12.7-4.2,18.8-5.5
			c6.1-1.4,10.9-2.1,14.5-2.1c4.2,0,7.7,0.8,10.6,2.5c2.8,1.7,4.9,5.1,6.2,10.1c4.8-4.6,10.6-7.9,17.2-9.8c6.6-1.9,13.6-2.8,21-2.8
			c11.2,0,21.6,2.9,31.3,8.7c9.7,5.8,17.5,14.5,23.5,26.1s9,26.3,9,44.2c0,20-3.8,37.1-11.5,51.3c-7.7,14.2-18,25.1-31,32.5
			c-13,7.5-27.3,11.2-43.1,11.2c-1.7,0-3.6-0.1-5.7-0.2c-2.1-0.1-4.3-0.3-6.6-0.5v23.1c0,6.1,2.2,10.5,6.6,13.3
			c4.4,2.7,8.9,4.1,13.6,4.1c0,6.3-2.4,11.9-7.3,16.7h-69.8V329.6z M647.5,250c8.6,0,16-5.1,22.1-15.2c6.1-10.1,9.2-26.5,9.2-49.3
			c0-14.5-1.5-26.1-4.6-34.6s-7.2-14.6-12.5-18.3s-11.1-5.5-17.4-5.5c-3.4,0-6.3,0.6-8.8,1.9v117.8C639.1,249,643.1,250,647.5,250z"
			/>
		<path class="st0" d="M757.1,269.6c-2.3-2.3-4.1-4.8-5.4-7.6c-1.3-2.7-1.9-5.9-1.9-9.5c6.1,0,10.6-1.3,13.6-3.9
			c2.9-2.6,4.4-7.1,4.4-13.4v-91.6c0-5.5-1.3-9.6-3.9-12.3c-2.6-2.7-8.3-4.1-16.9-4.1v-13.9c3.2-1.9,8-4.1,14.5-6.5
			s13.6-4.5,21.3-6.2s14.6-2.5,20.7-2.5c4.8,0,8.3,1.1,10.4,3.3c2.1,2.2,3.2,6,3.2,11.2v122.9c0,6.3,1.6,10.7,4.7,13.3
			c3.2,2.5,7.8,3.8,13.9,3.8c0,3.6-0.6,6.7-1.9,9.5c-1.3,2.7-3.1,5.3-5.4,7.6h-71.3V269.6z M792.5,76c-9.1,0-16.3-2.7-21.6-8.1
			s-8.1-12.6-8.1-21.6c0-8.8,2.8-16,8.4-21.5c5.6-5.5,12.9-8.2,22-8.2c9.3,0,16.6,2.7,22,8.2s8.1,12.6,8.1,21.5
			c0,9.1-2.8,16.3-8.4,21.6C809.2,73.3,801.8,76,792.5,76z"/>
	</g>
</g>
</svg>
